<?xml version="1.0" encoding="utf-8"?>
<!-- Generator: Adobe Illustrator 20.1.0, SVG Export Plug-In . SVG Version: 6.00 Build 0)  -->
<svg version="1.1" id="Calque_1" xmlns="http://www.w3.org/2000/svg" xmlns:xlink="http://www.w3.org/1999/xlink" x="0px" y="0px"
	 viewBox="0 0 216 53" style="enable-background:new 0 0 216 53;" xml:space="preserve">
<style type="text/css">
	.st0{fill:#E44E29;}
	.st1{font-family:'Kronika';}
	.st2{font-size:31.03px;}
	.st3{fill:none;stroke:#E44E29;stroke-width:7;stroke-miterlimit:10;}
	.st4{fill:#FFFFFF;}
</style>
<title>Fichier 2</title>
<g id="Calque_2">
	<g id="Photoshop">
		<text transform="matrix(0.83 0 0 1 62.8299 37.2952)" class="st0 st1 st2">doyoukulele</text>
		<text transform="matrix(0.83 0 0 1 62.8299 37.2952)" class="st3 st1 st2">doyoukulele</text>
		<text transform="matrix(0.83 0 0 1 62.8299 38.2849)" class="st4 st1 st2">doyoukulele</text>
		<path class="st4" d="M45.4,21.6l2.9-1.3c0.9-1.1,1.4-2.5,1.4-3.9c0.4-0.4,0.6-1,0.5-1.6c-0.2-0.8-0.4-1.5-0.8-2.2
			c0.5-0.4,0.7-1.1,0.6-1.8c-0.4-1.7-1.7-3.1-3.3-3.7c-1.1-0.4-2.3-0.5-3.5-0.3c-0.3-1.1-0.9-2.1-1.9-2.8C41,4,40.9,3.9,40.7,3.9
			c-0.5-0.4-1.2-0.8-1.8-1c-0.3-0.1-0.6-0.1-0.9,0c-1.1-0.3-2.3-0.1-3.2,0.5c-0.8,0.6-1,1.7-0.5,2.5c0.1,0.2,0.3,0.3,0.5,0.5
			l0.1,0.1c0,0.1,0,0.1,0,0.1l0,0.1l0,0c-0.4,0.1-0.7,0.4-0.9,0.7l-0.3,0.1c-2.9-1.3-6.1-2-9.3-1.9c-0.7,0-1.3,0-2,0.1
			c-0.1-0.2-0.2-0.4-0.3-0.5c-0.5-0.5-1-1-1.6-1.3c0.4-0.6,0.3-1.4-0.2-2c-1.4-1.8-3.5-2.4-6.1-1.6c-0.3-0.1-0.7-0.2-1-0.1
			c-1,0.2-2,0.7-2.9,1.3c-1-1-2.2-1.7-3.6-1.9C6.3-0.4,5.7-0.3,5.3,0C4.5-0.1,3.7,0,2.9,0.4C1.7,0.9,0.8,2,0.5,3.3
			C0.3,4,0.6,4.8,1.2,5.2c0.4,0.3,1,0.4,1.5,0.3l0.1,0.1l0,0C2.5,6,2.2,6.3,2.1,6.7C2,6.8,2,6.9,2,7c-1.5,1.4-2.3,3.4-2.1,5.4
			C0,13.5,1,14.2,2,14c0.7-0.1,1.2-0.6,1.5-1.2v0.1c0.3-0.4,0.6-0.7,1-1c0.1,0.2,0.3,0.4,0.4,0.5c0,1.1,0.2,2.1,0.6,3.1
			c-0.3,0.4-0.5,0.8-0.8,1.2s-6.9,12.2,0.6,24.9c7.3,10.6,21.9,13.2,32.5,5.9c2.3-1.6,4.3-3.6,5.9-5.9
			C50.2,31.8,45.4,21.6,45.4,21.6z"/>
		<path class="st0" d="M15.2,47.7h18.4c0.8-0.4,1.6-0.8,2.3-1.3h-23C13.6,46.9,14.4,47.4,15.2,47.7z"/>
		<path class="st0" d="M11.5,44.9h25.9c0.5,0.1,1-0.3,1.5-0.8H9.9C10.4,44.6,10.9,45,11.5,44.9z"/>
		<path class="st0" d="M7.8,41.4c0.4,0.4,0.7,0.9,1.1,1.3h31c0.4-0.4,0.8-0.8,1.1-1.3H7.8z"/>
		<path class="st0" d="M24.4,49.8c2.3,0,4.5-0.4,6.6-1H17.8C19.9,49.4,22.1,49.8,24.4,49.8z"/>
		<path class="st0" d="M45.4,31.7c-5.4-2.1-12.8-3.5-21-3.5s-15.6,1.3-21,3.5c0.2,1.6,0.6,3.1,1.2,4.6h39.6
			C44.8,34.8,45.2,33.3,45.4,31.7z"/>
		<path class="st0" d="M22.9,34.8c0.9-5.7-2.7-16.5-3.7-17.9c-0.5,0.3-0.1,1.7-0.1,1.7l-0.3-0.1c0.3,1.8-0.3,2.4-0.2,3
			c-1-0.6-1.4-2.6-1.4-2.6s-0.5,0.2-0.6,0.6c-0.2-1,0-2,0.4-2.9c-0.9,0.6-1.4,1.6-1.6,2.6c-0.3-0.2-0.5-0.4-0.6-0.7
			c-0.3,0.9-0.1,2.6-0.3,3.1c-1.1-0.8-1-3.1-1-3.1l-0.3,0.1c0.4-1.5,1.5-2.7,3-3.3c-0.6,0-1.2,0.1-1.7,0.4v-0.3
			c-0.4,0.1-0.8,0.3-1.2,0.5c0.5-2.4,4-1.9,4.7-1.3c-0.3-0.9,0-1.9,0.7-2.5c0,0.1,0,0.2,0,0.3c0.3-0.5,0.8-0.8,1.3-1L20,11.8
			c0.5-0.5,1.3-0.6,2-0.3c-0.6,0.4-1.1,0.4-1.3,0.6c0.3,0,0.5,0.1,0.7,0.3c-0.7,0.2-1.2,0.5-1.7,1c0.2,0,0.4,0.1,0.6,0.2
			c-0.5,0.2-1,0.7-1.1,1.2c0.8-0.8,1.9-1,3-0.7c0,0-0.5,0.2-0.6,0.3c2.1,0.1,2.4,0.9,2.7,1.3c-0.8-0.4-1.7-0.5-2.5-0.3v0.2
			c-0.6-0.3-1.4-0.3-2-0.1c2.2,0.3,2.3,1.4,2.3,1.4c-0.1,0-0.2,0-0.4,0c0.6,0.6,1,1.4,0.9,2.3c-0.4-0.7-0.9-1.3-1.5-1.8
			c-0.1,0.1-0.2,0.1-0.2,0.2c-0.2,0-0.6-0.5-0.6-0.5c2.3,4.6,4.5,13.9,4.4,17.3L22.9,34.8z"/>
		<path class="st0" d="M35.9,35.2c-1.3-8.3,2.6-20.6,4-22.6c0.7,0.4,0.1,2.5,0.1,2.5l0.3-0.1c-0.4,2.6,0.5,3.5,0.2,4.4
			c1.4-0.8,2-3.8,2-3.8s0.7,0.3,0.9,0.8c0.3-1.4,0.1-2.9-0.5-4.3c1.3,0.8,2.5,3.2,2.3,3.8c0.4-0.2,0.7-0.6,0.8-1
			c0.5,1.3,0.1,3.7,0.4,4.6c1.6-1.1,1.5-4.5,1.5-4.5l0.5,0.1c-0.6-2.2-2.2-4-4.4-4.8c0.9,0,1.7,0.2,2.5,0.6v-0.4
			c0.6,0.2,1.2,0.4,1.7,0.8c-0.8-3.5-5.7-2.8-6.8-1.9c0.4-1.3-0.1-2.7-1.1-3.6c0.1,0.1,0.1,0.3,0.1,0.5c-0.5-0.7-1.2-1.2-1.9-1.5
			l0.4,0.6c-0.8-0.8-2-1-3-0.4c0.8,0.6,1.6,0.6,1.9,0.9c-0.4,0.1-0.7,0.2-1,0.4c0.9,0.2,1.8,0.7,2.5,1.4c-0.3,0-0.6,0.1-0.8,0.2
			c0.8,0.3,1.4,1,1.7,1.8c-1.2-1.1-2.8-1.5-4.4-1c0,0,0.7,0.4,0.8,0.5c-3,0.2-3.5,1.2-3.9,1.9c1.2-0.5,2.4-0.7,3.7-0.4l-0.1,0.3
			c0.9-0.5,2-0.5,3-0.1c-3.2,0.4-3.3,2.1-3.3,2.1c0.2,0,0.3,0,0.5,0.1c-0.9,0.5-1.5,2.6-1.3,3.3c0.5-1,1.3-1.9,2.2-2.6
			c0.2,0.1,0.2,0.1,0.3,0.3c0.3,0,0.9-0.6,0.9-0.6c-3.3,6.7-6,16.8-6,21.7L35.9,35.2z"/>
		<path class="st0" d="M13.5,34c-2.3-6.8-3.4-17.2-3.8-22.3c-0.2-0.6-0.6-1.2-1.1-1.6c-0.7,1.6-1.1,3.3-1.3,5
			c-0.5-1.4-0.7-2.9-0.4-4.3c-0.3,0-0.6,0-0.8,0.2c0.3-1.5,1.1-2.9,2.2-3.9c-1.2,0.5-2.3,1.3-3,2.5L5.2,9c0,0-3,2.1-3.4,3.2
			c-0.2-1.8,1.3-4.2,2.8-4.7L3.8,7.4c0.5-1.3,2.6-2.2,3.5-1.7C6.4,4.2,5.1,3.6,4,4.3c0.2-0.3,0.4-0.5,0.6-0.8C3.9,3.2,3,3.3,2.3,3.8
			c0.9-3.2,4.4-1.4,4.4-1.4c0-0.3,0-0.6-0.2-0.9C8.3,1.8,10,3.2,9.9,4.7c0.8-1.3,2.2-2.3,3.7-2.7l-0.2,0.6c2.4-1.1,4.3-1.1,5.4,0.5
			c-1.1-0.3-2.3-0.3-3.4,0.2L16,3.7c-1,0.1-2.1,0.4-2.9,1c5-1.2,7.6,1.8,7.6,1.8c-0.5,0-1.1,0-1.6,0.2c2.6,2.1,2.3,4.2,0.9,5.5
			c-0.1-2.3-2.1-3.6-3.2-4.2c0.3,0.5,0.5,1,0.4,1.6c-1.1-1.5-2.7-2.6-4.4-3.1c1.7,0.8,2.9,2.4,3.1,4.2c-0.3-0.4-0.7-0.7-1.1-1.1
			c0.8,1.8,0.9,3.9,0.1,5.8c-2.5-1.9-2.4-4-2.4-4c-0.1,0.4-0.3,0.7-0.6,1c-0.2-1.3-0.6-2.5-1.2-3.7c0.1,0.3,0.1,0.7,0.1,1.1
			c-0.1,1.5,1.9,17.4,5.1,25"/>
		<path class="st0" d="M28.1,29.2c1.4-4,2-10.2,2.3-13.2c0.1-0.4,0.4-0.7,0.7-0.9c0.4,1,0.7,2,0.8,3c0.3-0.8,0.4-1.7,0.2-2.6
			c0.2,0,0.3,0,0.5,0.1c-0.2-0.9-0.7-1.7-1.3-2.3c0.7,0.3,1.3,0.8,1.8,1.4l0.1-0.4c0,0,1.8,1.3,2,1.9c0.1-1.2-0.6-2.3-1.7-2.8h0.5
			c-0.4-0.8-1.2-1.2-2.1-1c0.5-0.9,1.3-1.2,1.9-0.8c-0.1-0.2-0.2-0.3-0.3-0.4c0.4-0.2,1-0.2,1.4,0.1c-0.5-1.9-2.6-0.8-2.6-0.8
			c0-0.2,0-0.4,0.1-0.5c-1.1,0.2-2.1,1-2,1.9c-0.5-0.8-1.3-1.4-2.2-1.6l0.1,0.3c-1.5-0.7-2.5-0.6-3.2,0.3c0.7-0.2,1.4-0.2,2,0.1
			l-0.3,0.2c0.6,0,1.2,0.3,1.7,0.6c-1.6-0.5-3.3-0.1-4.5,1c0.3,0,0.7,0,1,0.1c-1.5,1.2-1.4,2.5-0.5,3.2c0.1-1.1,0.8-2,1.8-2.5
			c-0.2,0.3-0.3,0.6-0.3,1c0.6-0.9,1.6-1.5,2.6-1.8c-1,0.5-1.7,1.4-1.9,2.5c0.2-0.2,0.4-0.5,0.7-0.6c-0.5,1.1-0.5,2.3-0.1,3.5
			c0.8-0.5,1.4-1.4,1.4-2.4c0.1,0.2,0.2,0.4,0.3,0.6c0.1-0.8,0.4-1.5,0.7-2.2c0,0.2,0,0.4,0,0.6c0.1,0.9-1.1,10.3-3,14.8"/>
	</g>
</g>
</svg>
