<svg xmlns="http://www.w3.org/2000/svg" viewBox="0 0 141 21"><defs><style>.cls-1{fill:#d0d0c6;}</style></defs><title>Fichier 1</title><g id="Calque_2" data-name="Calque 2"><g id="Photoshop"><path class="cls-1" d="M11.23,8.42A9.17,9.17,0,0,1,10,13.66q-1.37,1.93-4.62,1.93-.41,0-1.21.06T3,15.71a3.26,3.26,0,0,1-1.66-.31A1.38,1.38,0,0,1,.41,15,1.21,1.21,0,0,1,0,14.11q0-1.41.05-6l0-6A1.49,1.49,0,0,1,.6,1,1.56,1.56,0,0,1,1.69.5l.79,0a7.77,7.77,0,0,1,.79,0,15.24,15.24,0,0,1,4.45.73,4.74,4.74,0,0,1,3.07,3A15.07,15.07,0,0,1,11.23,8.42Zm-2.69.83q0-.39,0-.79A8.64,8.64,0,0,0,7.8,4.53Q6.84,2.9,4.09,2.9A12.38,12.38,0,0,0,2.78,3l0,10.23a1.9,1.9,0,0,0,1,.2q.29,0,.8,0l.8-.06A2.91,2.91,0,0,0,8,11.9,5.57,5.57,0,0,0,8.54,9.25Z"/><path class="cls-1" d="M21.59,10.83a5.66,5.66,0,0,1-.9,3.17,4.07,4.07,0,0,1-3.43,1.89,4.5,4.5,0,0,1-3.14-1.09,5,5,0,0,1-1.77-3.47,6,6,0,0,1,0-.75,5.52,5.52,0,0,1,.88-3,4.57,4.57,0,0,1,3.89-2.1,3.76,3.76,0,0,1,3.18,1.39,5.78,5.78,0,0,1,1.31,3.36Q21.59,10.53,21.59,10.83ZM19.05,11q-.13-3.07-1.89-3A2,2,0,0,0,15.4,9.09,3.67,3.67,0,0,0,15,10.83c0,.13,0,.27,0,.4a2.67,2.67,0,0,0,.62,1.56,1.74,1.74,0,0,0,1.44.6,2,2,0,0,0,1.49-.73A2.44,2.44,0,0,0,19.05,11Z"/><path class="cls-1" d="M31.79,6.54l-.27,5.6q0-.13,0,1.51,0,.2,0,.6t0,.59a1.14,1.14,0,0,1-.26.75q0,.46-.15,1.5a4.67,4.67,0,0,1-1.14,2.56A3.38,3.38,0,0,1,27.51,21a6.23,6.23,0,0,1-2.64-.48,3.52,3.52,0,0,1-2.06-2.1,1.41,1.41,0,0,1-.08-.59,1.34,1.34,0,0,1,.53-.94,1.56,1.56,0,0,1,1-.35,1.13,1.13,0,0,1,1,.63,7.57,7.57,0,0,0,.57,1.22,1,1,0,0,0,.78.35,1.87,1.87,0,0,0,.61-.15,1.84,1.84,0,0,1,.59-.15q.51,0,.77-1.35,0-.15.11-1.58a7.4,7.4,0,0,1-2.11.3,4.33,4.33,0,0,1-2.23-.53,2.63,2.63,0,0,1-1.31-2,27.4,27.4,0,0,1-.37-4.25,16.33,16.33,0,0,1,.29-2.83,1.18,1.18,0,0,1,1.3-1.08,1.4,1.4,0,0,1,.91.31,1.11,1.11,0,0,1,.43.91,9.48,9.48,0,0,1-.14,1.34,9.48,9.48,0,0,0-.14,1.34,16.14,16.14,0,0,0,.37,4,2.26,2.26,0,0,0,.9.22,9.9,9.9,0,0,0,2.2-.28l.1-3.29q.05-1.56.18-3.37.08-1.13,1.31-1.13a1.2,1.2,0,0,1,1.3.87A.76.76,0,0,1,31.79,6.54Z"/><path class="cls-1" d="M42.14,10.83a5.66,5.66,0,0,1-.9,3.17,4.07,4.07,0,0,1-3.43,1.89,4.5,4.5,0,0,1-3.14-1.09,5,5,0,0,1-1.77-3.47,6,6,0,0,1,0-.75,5.52,5.52,0,0,1,.88-3,4.57,4.57,0,0,1,3.89-2.1,3.76,3.76,0,0,1,3.18,1.39,5.78,5.78,0,0,1,1.31,3.36Q42.14,10.53,42.14,10.83ZM39.6,11q-.13-3.07-1.89-3a2,2,0,0,0-1.77,1.14,3.67,3.67,0,0,0-.42,1.74c0,.13,0,.27,0,.4a2.67,2.67,0,0,0,.62,1.56,1.74,1.74,0,0,0,1.44.6,2,2,0,0,0,1.49-.73A2.44,2.44,0,0,0,39.6,11Z"/><path class="cls-1" d="M52.25,6.34q0,.58-.09,1.73T52.07,9.8q0,1.06,0,2.52.05,1.83.05,2.51a1.1,1.1,0,0,1-.43.9,1.39,1.39,0,0,1-.91.32q-.38,0-.7-.62l-.47-1a1.89,1.89,0,0,1-1.09.94,3.53,3.53,0,0,1-1.45.36,3.3,3.3,0,0,1-3.47-2.22,15.26,15.26,0,0,1-.44-4.52,11.89,11.89,0,0,1,.17-2.41q.34-1.49,1.41-1.49a1.41,1.41,0,0,1,.92.31,1.1,1.1,0,0,1,.42.91A9.49,9.49,0,0,1,46,7.72a9.48,9.48,0,0,0-.14,1.34,16.13,16.13,0,0,0,.37,4,2.4,2.4,0,0,0,.9.22,3.34,3.34,0,0,0,1.17-.16,2.6,2.6,0,0,0,1.17-1l0-2.41q0-.19,0-.69t0-.69q0-3.13,1.52-3.13a1.5,1.5,0,0,1,.89.29A1,1,0,0,1,52.25,6.34Z"/><path class="cls-1" d="M62.84,14.23a1.15,1.15,0,0,1-.43.93,1.43,1.43,0,0,1-.93.35q-.58,0-2.62-1.7A21.41,21.41,0,0,1,56.4,11.5l-.17.14h0l-.19.11q0,.2,0,.69t0,.81q0,2.31-1.36,2.34T53.32,14q0-1.86,0-6.36,0-3.8,0-6.37a1.21,1.21,0,0,1,.39-1A1.35,1.35,0,0,1,54.62,0a1.33,1.33,0,0,1,1,.33q.54.5.54,4.44,0,.85,0,2.13t0,1.42v.23l2.49-2.38q1.84-1.76,2.36-1.77a1.4,1.4,0,0,1,.94.32,1.21,1.21,0,0,1,.44.94q0,.61-1.7,2.17l-2.2,2,2.32,1.94Q62.82,13.52,62.84,14.23Z"/><path class="cls-1" d="M72.95,6.34q0,.58-.09,1.73T72.76,9.8q0,1.06,0,2.52.05,1.83.05,2.51a1.1,1.1,0,0,1-.43.9,1.39,1.39,0,0,1-.91.32q-.38,0-.7-.62l-.47-1a1.89,1.89,0,0,1-1.09.94,3.53,3.53,0,0,1-1.45.36,3.3,3.3,0,0,1-3.47-2.22,15.26,15.26,0,0,1-.44-4.52,11.89,11.89,0,0,1,.17-2.41q.34-1.49,1.41-1.49a1.41,1.41,0,0,1,.92.31,1.1,1.1,0,0,1,.42.91,9.49,9.49,0,0,1-.14,1.34,9.48,9.48,0,0,0-.14,1.34,16.13,16.13,0,0,0,.37,4,2.4,2.4,0,0,0,.9.22A3.34,3.34,0,0,0,69,13.13a2.6,2.6,0,0,0,1.17-1l0-2.41q0-.19,0-.69t0-.69q0-3.13,1.52-3.13a1.5,1.5,0,0,1,.89.29A1,1,0,0,1,72.95,6.34Z"/><path class="cls-1" d="M76.66,13.91q0,1.81-1.32,1.81a1.3,1.3,0,0,1-.92-.34,1.2,1.2,0,0,1-.4-1V1.26a1.13,1.13,0,0,1,.42-.92,1.45,1.45,0,0,1,.93-.3,1.33,1.33,0,0,1,.91.3,1.15,1.15,0,0,1,.39.92Z"/><path class="cls-1" d="M87.52,13.4q0,1.16-1.71,1.83a7.48,7.48,0,0,1-2.73.51,6.24,6.24,0,0,1-3.65-1,3.94,3.94,0,0,1-1.71-3.46A6.45,6.45,0,0,1,79,7.18a4.57,4.57,0,0,1,3.8-1.82,5.09,5.09,0,0,1,2.75.86A2.73,2.73,0,0,1,87.08,8.5a2,2,0,0,1-.05.44A3,3,0,0,1,86,10.88a4.15,4.15,0,0,1-2.17.55l-3.58.15q0,.85,1,1.4a3.94,3.94,0,0,0,1.81.45,5.42,5.42,0,0,0,1.85-.49,5.63,5.63,0,0,1,1.6-.5A.86.86,0,0,1,87.52,13.4ZM84.69,9.22A2,2,0,0,0,84.32,8a2.22,2.22,0,0,0-1.51-.41,2.47,2.47,0,0,0-2.53,2q.39,0,1.18.08t1.19.08A3.73,3.73,0,0,0,84.69,9.22Z"/><path class="cls-1" d="M91.23,13.91q0,1.81-1.32,1.81a1.3,1.3,0,0,1-.92-.34,1.2,1.2,0,0,1-.4-1V1.26A1.13,1.13,0,0,1,89,.33a1.45,1.45,0,0,1,.93-.3,1.33,1.33,0,0,1,.91.3,1.15,1.15,0,0,1,.39.92Z"/><path class="cls-1" d="M102.09,13.4q0,1.16-1.71,1.83a7.48,7.48,0,0,1-2.73.51,6.24,6.24,0,0,1-3.65-1,3.94,3.94,0,0,1-1.71-3.46,6.45,6.45,0,0,1,1.3-4.1,4.57,4.57,0,0,1,3.8-1.82,5.09,5.09,0,0,1,2.75.86,2.73,2.73,0,0,1,1.52,2.28,2,2,0,0,1-.05.44,3,3,0,0,1-1.06,1.94,4.15,4.15,0,0,1-2.17.55l-3.58.15q0,.85,1,1.4a3.94,3.94,0,0,0,1.81.45,5.42,5.42,0,0,0,1.85-.49,5.63,5.63,0,0,1,1.6-.5A.86.86,0,0,1,102.09,13.4ZM99.27,9.22A2,2,0,0,0,98.9,8a2.22,2.22,0,0,0-1.51-.41,2.47,2.47,0,0,0-2.53,2q.39,0,1.18.08t1.19.08A3.73,3.73,0,0,0,99.27,9.22Z"/><path class="cls-1" d="M106.12,14.62a1.3,1.3,0,0,1-.46,1,1.6,1.6,0,0,1-2,0,1.37,1.37,0,0,1,0-2,1.6,1.6,0,0,1,2,0A1.29,1.29,0,0,1,106.12,14.62Z"/><path class="cls-1" d="M116.23,13.76q0,.76-1.63,1.49a6.1,6.1,0,0,1-2.37.65,5.33,5.33,0,0,1-3.44-1.1,4.29,4.29,0,0,1-1.6-3.4Q107,5.19,112.1,5.19a6.33,6.33,0,0,1,2.37.54q1.58.65,1.58,1.5a1.15,1.15,0,0,1-.37.87,1.2,1.2,0,0,1-.85.35A11.2,11.2,0,0,1,113.72,8a4.56,4.56,0,0,0-1.62-.44q-2.48,0-2.48,3a6.85,6.85,0,0,0,.06.88,2.24,2.24,0,0,0,2.55,2.11,4.21,4.21,0,0,0,1.51-.49,5.45,5.45,0,0,1,1.23-.48,1.24,1.24,0,0,1,.86.33A1.16,1.16,0,0,1,116.23,13.76Z"/><path class="cls-1" d="M126.58,10.83a5.66,5.66,0,0,1-.9,3.17,4.07,4.07,0,0,1-3.43,1.89,4.5,4.5,0,0,1-3.14-1.09,5,5,0,0,1-1.77-3.47,6,6,0,0,1,0-.75,5.52,5.52,0,0,1,.88-3,4.57,4.57,0,0,1,3.89-2.1,3.76,3.76,0,0,1,3.18,1.39,5.78,5.78,0,0,1,1.31,3.36Q126.58,10.53,126.58,10.83ZM124,11q-.13-3.07-1.89-3a2,2,0,0,0-1.77,1.14,3.67,3.67,0,0,0-.42,1.74c0,.13,0,.27,0,.4a2.67,2.67,0,0,0,.62,1.56,1.74,1.74,0,0,0,1.44.6,2,2,0,0,0,1.49-.73A2.44,2.44,0,0,0,124,11Z"/><path class="cls-1" d="M141,10.86q0,.59,0,1.77t0,1.76a1.13,1.13,0,0,1-.42.92,1.37,1.37,0,0,1-.91.32q-1.41,0-1.41-3.13,0-.69.14-2.07t.13-2.07q0-.79-.41-.79a4,4,0,0,0-2.26.56q.08.6.08,2.81,0,.59,0,1.77t0,1.76a1.13,1.13,0,0,1-.42.92,1.35,1.35,0,0,1-.91.32q-1.4,0-1.4-3.13,0-.69.13-2.07t.13-2.07q0-.79-.41-.79-2.19,0-2.48,1.87a11.24,11.24,0,0,0-.09,1.61q0,.78,0,1.91l0,1.51a1.12,1.12,0,0,1-.41.93,1.38,1.38,0,0,1-.92.32,1.25,1.25,0,0,1-1.28-1,7.31,7.31,0,0,1-.16-1.84q0-1.13.1-3.39t.1-3.39a1.11,1.11,0,0,1,.43-.91,1.4,1.4,0,0,1,.91-.31q1.22,0,1.35,1.6a13.88,13.88,0,0,1,1.05-1,2.24,2.24,0,0,1,1.32-.4,2.49,2.49,0,0,1,2.32,1.19A4.09,4.09,0,0,1,138,5a2.56,2.56,0,0,1,2.69,2.07A16.83,16.83,0,0,1,141,10.86Z"/></g></g></svg>