<svg xmlns="http://www.w3.org/2000/svg" viewBox="0 0 27.91 27.91"><defs><style>.cls-1{fill:#e4603f;}.cls-2{fill:#fff;}</style></defs><title>note</title><g id="Calque_2" data-name="Calque 2"><g id="CONTENU"><circle class="cls-1" cx="13.96" cy="13.96" r="13.96"/><path class="cls-2" d="M21,18.12c0,1.5-2.24,2-3.39,2s-3.39-.54-3.39-2,2.24-2,3.39-2a5,5,0,0,1,2,.41V10.8l-8.14,2.51v7.52c0,1.5-2.24,2-3.39,2s-3.39-.54-3.39-2,2.24-2,3.39-2a5,5,0,0,1,2,.41V9a1,1,0,0,1,.72-1l8.82-2.71a.92.92,0,0,1,.3,0,1,1,0,0,1,1,1Z"/></g></g></svg>