<svg xmlns="http://www.w3.org/2000/svg" viewBox="0 0 404.94 316.04"><defs><style>.cls-1{fill:#87644b;}.cls-2{fill:#fff;}</style></defs><title>palm</title><g id="Calque_2" data-name="Calque 2"><g id="Calque_1-2" data-name="Calque 1"><g id="Calque_2-2" data-name="Calque 2"><g id="Photoshop"><path class="cls-1" d="M0,40.69V54.75A59.25,59.25,0,0,0,14.85,40c.47,2.16-1.39,11-9.37,16.78.69,0,1.39-.08,2.1-.13C14.13,53.95,24.1,46.55,28,38.32c1,3.3.28,8-2,12.16a234.47,234.47,0,0,0-26,14V113.6c1.2-.72,2.39-1.45,3.56-2.21C10,104.44,11.74,97,11.68,93.11c-3-5.79-.07-14.41,2.13-17-1.21,5.7,2.73,15.61,6.33,23q3.82-3.22,7.33-6.55c-1.9-9.13-1.56-20.36-1-22.27a44.75,44.75,0,0,1,6.75,12.46C14,122.65-1.19,198.7,13.22,280.6c-1.79-1.38-3.64-2.7-5.53-3.91a39.37,39.37,0,0,1-.33-8.59.62.62,0,0,0-.59-.65h0A.65.65,0,0,0,6,268a38.86,38.86,0,0,0,.22,7.77A62.54,62.54,0,0,0,0,272.49v1.37a61.72,61.72,0,0,1,6.44,3.52,53.17,53.17,0,0,0,1.27,5.86,33.11,33.11,0,0,0-3.37-.51c1.08.79,2.47,1.74,4.07,2.86a62.78,62.78,0,0,0,5.37,12.08A94.8,94.8,0,0,0,0,288.38v1.43a94.89,94.89,0,0,1,16,11.37q.66,1,1.35,1.88A72.35,72.35,0,0,0,0,294.33v.82c4.88,4,12.51,9.17,16.62,14.32A97.56,97.56,0,0,0,0,306.32v1.22a95.22,95.22,0,0,1,17,3.31,92.16,92.16,0,0,0-13.58,4Q1.73,315.48,0,316c-1.71.54,86.06-10.46,62.08-4,6.21-4.22,14.79-7,21.66-9.83-6.95.3-15.74,2.75-23,5.92l.27-.32c14.59-5.87,31-11.18,38.84-11.14a.65.65,0,0,0,.68-.61.64.64,0,0,0-.66-.61c-7.71,0-22.86,4.7-36.9,10.21,5.85-6,14.6-11,21.3-11.25-3.07-2.51-16,.66-25.2,7.85.5-.69,1-1.4,1.44-2.13a110.85,110.85,0,0,1,10.1-8,.57.57,0,0,0,.17-.79l0-.06a.71.71,0,0,0-.94-.11q-4.06,2.88-7.4,5.64h0A39.23,39.23,0,0,0,65,290.63,102.61,102.61,0,0,1,72.33,283a35.8,35.8,0,0,0-6.3,3.35c.17-1,.3-1.88.4-2.82a74.33,74.33,0,0,1,10.49-8,.58.58,0,0,0,.21-.79l0-.06a.71.71,0,0,0-.93-.15,76.14,76.14,0,0,0-9.62,7.22,30,30,0,0,0-.11-4.29,52.35,52.35,0,0,1,7.48-5.91,29.75,29.75,0,0,0-7.84,3.32,29.8,29.8,0,0,0-1.65-5.7.69.69,0,0,0-.86-.36.59.59,0,0,0-.42.72l0,.06a28,28,0,0,1,1.67,6,44.28,44.28,0,0,0-8.37,7.1q.72-5.91,1.67-12c1.22-.66,2.46-1.29,3.71-1.84a.58.58,0,0,0,.34-.75l0-.06a.69.69,0,0,0-.88-.28c-1,.42-1.94.9-2.9,1.4C65.74,222.75,83,170.29,116,151c-1.14,2.17-2.33,4.59-3.53,7.24,1.65,2.56,4.09,6,4.09,6a38,38,0,0,0-9.58,8.16,138.64,138.64,0,0,0-4.24,16.12A26.67,26.67,0,0,1,114,183.38a63,63,0,0,0-12.12,9.88c-.45,2.85-.81,5.75-1.06,8.69,2.21-1.9,4.94-3.82,7.55-4.39a98.73,98.73,0,0,0-7.91,13.78,94.55,94.55,0,0,0,1.14,14.35,31.84,31.84,0,0,1,7.58-7.34c-1.82,3.15-5,9.45-5.83,15.66a80,80,0,0,0,3.55,10.52c1.47-1.7,4.05-4.36,7.09-7.91,1.42-3.71,2.43-7.68,2.33-10a12.3,12.3,0,0,1,2.78,3.63c1.88-2.51,3.79-5.29,5.63-8.32.25-3.95,0-7.69-1-10.14a11.3,11.3,0,0,1,4.44,3.89c.78-1.53,1.53-3.12,2.23-4.75-1.41-3.85-4.12-9.22-8.82-11.58a25.48,25.48,0,0,1,10.85,6.4,72.91,72.91,0,0,0,4.06-19.89,22.6,22.6,0,0,0-8.84-12.63c2.31-.06,5.26,1.33,8.89,5.16A77.43,77.43,0,0,0,132.88,158a23.14,23.14,0,0,1,5.93-6.83A80.78,80.78,0,0,0,136.68,172c.91,1.25,1.87,2.53,2.85,3.81a36,36,0,0,1,7.29-11.48c.26,1.51-.45,10.19-2.69,17.09q2.42,2.8,5.09,5.56c3.4-5.48,7.29-12.84,6.84-17.31,1.47,2.17,3,9,.19,13.27-.37,3,.35,8.85,4.68,14.64a98.87,98.87,0,0,0,9.59,6.7c0-4.87,1.55-11.51,8.83-14.54,1.91,2.57,5.84,12.38,1.82,20.07A69.35,69.35,0,0,0,200,215.08c-6.57-4.63-12.33-29.87-17.86-39.32-5.2-8.89-27.42-23.45-33.31-26.63-1.39-3.39-1.52-7-.49-9.51,2.3,6.61,9.35,13,14.16,15.55l1.6.25c-5.65-5-6.33-12-5.79-13.59,3.63,6.38,8.28,11.42,12.85,14.37,5.59.36,9.7-.13,10.91-1.86-5.09,1.19-17.78-18.9-19.94-20.8-2.83-2.48-18.8-7.38-20.61-8.31s-13.67,7.89-17.86,12.3c.45-11-2.26-23.36-6.61-23a16,16,0,0,1-14-6.87c-3.73-5.33-16.41-.3-25,.42a54.61,54.61,0,0,0,4,4.35c4.57.41,9.94.08,12.61-1.11-1.45,1.21-6.18,2.76-10.44,3.15,2.31,2.08,4.86,4.14,7.53,6.12,3-.31,7.85-.85,9.63-1.29-.44.74-3.77,2.73-6.06,3.85,1.55,1.07,3.12,2.11,4.69,3.12,1.86-.35,4.76-1.14,6.27-2.76,0,1-1.83,3.32-3.29,4.61,1.19.71,2.38,1.42,3.55,2.08l2.7-1.1.9,2.06s3.86-1.78,3.5-3.64c.86,1.17,1.64,3.2-1,5.93,2.8,1.41,5.41,2.58,7.66,3.46-9.34-3.35-22.63-9.16-27-9.86-2.56-.42-10.93-1.91-18.82-2.8-1.35-2.85-2.59-5.25-3.41-6.78,3.26,1,6.51,3.82,9.08,6.52.1-3.8.05-7.58-.12-11.28a78.72,78.72,0,0,0-14.2-14.15,33.51,33.51,0,0,1,13.76,7.94,174.88,174.88,0,0,0-3.17-21.21A47.51,47.51,0,0,0,65.3,73.66s3.62-4.11,6.11-7.2A136.21,136.21,0,0,0,63.5,46.93,57.78,57.78,0,0,0,78.74,57.52c-2.38-9.12.14-14.44,3.43-18.45A47.92,47.92,0,0,1,89.8,62.21q3.4,1.22,7,2.26c-2.42-6.12-2.35-13-1.29-15.45,4.85,3.78,7.53,12.67,8.65,17.38,2.7.63,5.45,1.19,8.23,1.68a39.55,39.55,0,0,1,.37-21.92c2.25,14.15,14.54,21,24.14,24.24q4.1,0,8.06-.15c-4.91-13.5,2.9-22.77,2.9-22.77.74,6,5.76,14.15,11.48,21.11,8.83-1.72,16.33-4.63,21.44-8.9C170.37,57.6,149.28,34,145.21,29.5s-38.25-1.4-44.64-1c-5.67.39-23.57,6.31-36,9.51,3-.85,6.53-2,10.34-3.54-3.07-3.8-1.77-6.33-.49-7.73-.74,2.34,4,5.08,4,5.08l1.45-2.54L83.07,31c1.59-.72,3.22-1.47,4.85-2.26-1.68-1.83-3.67-5.07-3.57-6.32C86,24.7,89.69,26,92,26.73q3.24-1.67,6.47-3.45c-2.79-1.7-6.78-4.65-7.25-5.65,2.23.76,8.33,2,12.2,2.78,3.71-2.23,7.27-4.58,10.55-7-5.42-1-11.28-3.55-13-5.27C104.27,10,111.13,11,117,11a75.84,75.84,0,0,0,5.8-5.12C111.9,4,96.3-4,90.76,2.48a21.13,21.13,0,0,1-19,7.19C66.21,8.76,61,24.27,60,38.51c-4.8-6.17-18.91-18.83-21.24-17.89S15.11,26,11.11,28.9C9.76,29.87,5.21,35.23,0,40.69ZM133.27,144.25c1-3.21,2.89-5.88,4.26-6.37a12.86,12.86,0,0,0-1,7.28ZM14,285a41.13,41.13,0,0,0-4.87-1.5,51.82,51.82,0,0,1-1.21-5.22c1.92,1.27,3.79,2.65,5.6,4.1C13.71,283.31,13.87,284.19,14,285Zm2.12,10.35A18.09,18.09,0,0,0,13,293.54a61.53,61.53,0,0,1-2.81-6.74c1.5,1,3.16,2.21,4.87,3.44q.5,2.59,1.07,5.17Zm1.19,5.26-.59-.53a55.92,55.92,0,0,1-3.7-6.45,28.2,28.2,0,0,1,3.63,4.16c.22,1,.45,1.92.67,2.86ZM45,63.35a75.31,75.31,0,0,0-5.73,8.14,102.77,102.77,0,0,0-.7-17.15A28.5,28.5,0,0,1,45,63.35ZM46.73,46l-4.37.78a16.53,16.53,0,0,0-.2-9.46C43.85,38.12,45.89,41.78,46.73,46Zm3,37.88a28.42,28.42,0,0,0-10.12,9.48c.91-2.5,1.85-5,2.84-7.44,2.88-1.7,5.29-2.27,7.25-2Zm5.6,209.63c0-.45.09-.9.13-1.34a57.73,57.73,0,0,1,9.72-13.46,30.92,30.92,0,0,1-.07,4.34,95.13,95.13,0,0,0-9.81,10.46Zm.06,9.89a97.35,97.35,0,0,1,7.07-9.76,38.94,38.94,0,0,1-3,5.74q-2.29,2.05-4.14,4ZM55,296.27V296a91.59,91.59,0,0,1,9.76-11c-.12.84-.28,1.67-.46,2.49A55.76,55.76,0,0,0,55,296.27Zm-21.13-2.13A75,75,0,0,1,43,282.56l.16.42c-.44,2.86-.86,5.75-1.23,8.68a77.64,77.64,0,0,0-5.69,7.94l-1.4-1.33a41.71,41.71,0,0,1-.93-4.13Zm5.34-20.2c1.16,2.4,2.21,4.84,3.19,7.28a75.44,75.44,0,0,0-7.5,9c-.45.63-.88,1.26-1.3,1.89a22.74,22.74,0,0,1,5.65-18.12ZM36.44,102.57a93.82,93.82,0,0,0,2.5,22.57,33.67,33.67,0,0,1,14.85-7c-6.38,2.49-10.63,9.07-13,13.85.62,2,1.3,4,2,5.92-5.21,3.84-10.5,7.07-14,7.44,3.57,3.65,9.1,6.42,15.76,8.36,1.22-1.2,2.4-2.47,3.52-3.75,1.48,2.91,3,5.65,4.52,8.19a15.4,15.4,0,0,1,3.73-4.06c-.24.63-.51,1.26-.82,1.92l1,.13a47.91,47.91,0,0,0,1.71,10.8c3.4,4.92,6.33,8.64,8,11a105.39,105.39,0,0,0,6.06-13.11,46.76,46.76,0,0,0-1.84-11.29,27.74,27.74,0,0,0,3.4-2c.73,1,1.36,2,1.87,2.85.51-1.85,1-3.72,1.36-5.58a20.29,20.29,0,0,0,5.26-9.05,30.57,30.57,0,0,1-1.59,16.91c2.18-.17,4.34-.42,6.48-.71,1.26-3.56,4.08-10.22,8.14-12.79.61,2,.08,7.27-2.3,11.81,1.89-.37,3.75-.79,5.56-1.25a37.75,37.75,0,0,1,7.86-17.29,13.73,13.73,0,0,1,2,11.64c-23.35,16.61-53.67,63.42-64.92,132l-.12.12c-1-2.44-2.07-4.89-3.24-7.3a31.43,31.43,0,0,1,4-3.39,13.46,13.46,0,0,0-4.94,1.4,86.13,86.13,0,0,0-5.66-9.53.71.71,0,0,0-.92-.2.57.57,0,0,0-.26.76l0,.08a85.79,85.79,0,0,1,5.64,9.51A23.19,23.19,0,0,0,28.28,284C18.5,232.67,17.13,162.77,36.44,102.57Z"/></g></g><path class="cls-2" d="M301.12,227.5c-11.42-2.7-32.42,2.9-38.94,10.62-7.66-12.81-27.4-19.65-43.88-16.62,7.59-9.41,35.73-5.85,44.73,5.6C271,220.13,294.29,221.08,301.12,227.5Z"/><path class="cls-2" d="M404.94,188.5c-9.39-1-26.48,1.93-40.94,18-11.37-11.23-42.84-4.21-50.54,5.15,25-7.4,42.41-4.56,53.33,4.63C373.09,204.78,385.74,194.31,404.94,188.5Z"/><path class="cls-2" d="M301.12,163.1c-6.14-1.47-17.72-1.07-28.72,8.3-6.54-8.44-28-6.58-33.94-1.06,17.19-2.69,28.5.73,34.92,7.78C278.58,171.07,287.89,165.25,301.12,163.1Z"/></g></g></svg>